<svg width="19" height="19" viewBox="0 0 19 19" fill="none" xmlns="http://www.w3.org/2000/svg">
<path d="M11.2182 15.6607C10.9943 15.8881 10.7274 16.0688 10.433 16.1921C10.1386 16.3154 9.82266 16.3788 9.5035 16.3788C9.18433 16.3788 8.86835 16.3154 8.57396 16.1921C8.27957 16.0688 8.01265 15.8881 7.78875 15.6607L2.02225 9.94982C-1.83204 6.09282 3.20296 -2.42732 9.50146 3.87254C15.7905 -2.41511 20.8255 6.10368 16.9807 9.94982L11.2182 15.6607Z" fill="#FF93B5"/>
<path d="M11.2182 15.6607C10.9943 15.8881 10.7274 16.0688 10.433 16.1921C10.1386 16.3154 9.82266 16.3788 9.5035 16.3788C9.18433 16.3788 8.86835 16.3154 8.57396 16.1921C8.27957 16.0688 8.01265 15.8881 7.78875 15.6607L2.02225 9.94982C-1.83204 6.09282 3.20296 -2.42732 9.50146 3.87254C15.7905 -2.41511 20.8255 6.10368 16.9807 9.94982L11.2182 15.6607Z" fill="#FF93B5"/>
</svg>
