<svg width="19" height="19" viewBox="0 0 19 19" fill="none" xmlns="http://www.w3.org/2000/svg">
<path fill-rule="evenodd" clip-rule="evenodd" d="M4.14461 1.19085C5.18863 0.564927 6.37561 0.216924 7.59233 0.180031C8.80904 0.143139 10.0149 0.418587 11.095 0.980104C12.175 1.54162 13.0931 2.37048 13.7619 3.38762C14.4306 4.40477 14.8275 5.57628 14.9149 6.79042C14.1477 6.44593 13.3144 6.27338 12.4735 6.28487C11.6326 6.29636 10.8043 6.4916 10.0468 6.85692C8.6939 7.50857 7.64847 8.66217 7.13273 10.0725C6.617 11.4829 6.67164 13.0387 7.28504 14.4094C6.37971 14.3407 5.49557 14.1013 4.67932 13.7037L0.678467 14.4284L1.87275 11.25C1.33875 10.4473 0.973227 9.54449 0.798306 8.59636C0.623385 7.64824 0.642709 6.67447 0.855107 5.73403C1.06751 4.79359 1.46856 3.90604 2.03399 3.12512C2.59941 2.34421 3.31744 1.68616 4.14461 1.19085Z" fill="#C3D5FF"/>
<path d="M12.5534 6.28516C13.5962 6.28545 14.6195 6.56845 15.5142 7.10404C16.409 7.63963 17.1418 8.40778 17.6347 9.32674C18.1276 10.2457 18.3621 11.2811 18.3134 12.3228C18.2646 13.3645 17.9343 14.3734 17.3577 15.2423L18.3213 17.8209L15.0777 17.2373C14.2976 17.6177 13.4418 17.8172 12.5739 17.8208C11.7061 17.8245 10.8486 17.6323 10.0653 17.2585C9.2821 16.8847 8.5933 16.3389 8.05028 15.6619C7.50726 14.9849 7.12401 14.1941 6.92909 13.3484C6.73418 12.5027 6.73261 11.624 6.92452 10.7776C7.11643 9.9312 7.49686 9.13904 8.03747 8.46012C8.57808 7.78119 9.26493 7.23302 10.0468 6.85644C10.8287 6.47986 11.6856 6.28458 12.5534 6.28516Z" fill="#78AEFF"/>
</svg>
